<svg xmlns="http://www.w3.org/2000/svg" viewBox="0 0 64 64" id="hotel"><g data-name="Hotel"><path fill="#231f20" d="M55,22H40V8h2a1,1,0,0,0,1-1V3a1,1,0,0,0-1-1H8A1,1,0,0,0,7,3V7A1,1,0,0,0,8,8h2V61a1,1,0,0,0,1,1H55a1,1,0,0,0,1-1V23A1,1,0,0,0,55,22ZM9,4H41V6H9Zm3,4H38V60H33V45a1,1,0,0,0-1-1H18a1,1,0,0,0-1,1V60H12Zm7,52V46H31V60Zm35,0H40V24H54Z"></path><rect width="2" height="2" x="14" y="12" fill="#231f20"></rect><rect width="2" height="2" x="18" y="12" fill="#231f20"></rect><rect width="2" height="2" x="22" y="12" fill="#231f20"></rect><rect width="2" height="2" x="26" y="12" fill="#231f20"></rect><rect width="2" height="2" x="30" y="12" fill="#231f20"></rect><rect width="2" height="2" x="34" y="12" fill="#231f20"></rect><rect width="2" height="2" x="14" y="16" fill="#231f20"></rect><rect width="2" height="2" x="18" y="16" fill="#231f20"></rect><rect width="2" height="2" x="22" y="16" fill="#231f20"></rect><rect width="2" height="2" x="26" y="16" fill="#231f20"></rect><rect width="2" height="2" x="30" y="16" fill="#231f20"></rect><rect width="2" height="2" x="34" y="16" fill="#231f20"></rect><rect width="2" height="2" x="14" y="20" fill="#231f20"></rect><rect width="2" height="2" x="18" y="20" fill="#231f20"></rect><rect width="2" height="2" x="22" y="20" fill="#231f20"></rect><rect width="2" height="2" x="26" y="20" fill="#231f20"></rect><rect width="2" height="2" x="30" y="20" fill="#231f20"></rect><rect width="2" height="2" x="34" y="20" fill="#231f20"></rect><rect width="2" height="2" x="14" y="24" fill="#231f20"></rect><rect width="2" height="2" x="18" y="24" fill="#231f20"></rect><rect width="2" height="2" x="22" y="24" fill="#231f20"></rect><rect width="2" height="2" x="26" y="24" fill="#231f20"></rect><rect width="2" height="2" x="30" y="24" fill="#231f20"></rect><rect width="2" height="2" x="34" y="24" fill="#231f20"></rect><rect width="2" height="2" x="14" y="28" fill="#231f20"></rect><rect width="2" height="2" x="18" y="28" fill="#231f20"></rect><rect width="2" height="2" x="22" y="28" fill="#231f20"></rect><rect width="2" height="2" x="26" y="28" fill="#231f20"></rect><rect width="2" height="2" x="30" y="28" fill="#231f20"></rect><rect width="2" height="2" x="34" y="28" fill="#231f20"></rect><rect width="2" height="2" x="14" y="32" fill="#231f20"></rect><rect width="2" height="2" x="18" y="32" fill="#231f20"></rect><rect width="2" height="2" x="22" y="32" fill="#231f20"></rect><rect width="2" height="2" x="26" y="32" fill="#231f20"></rect><rect width="2" height="2" x="30" y="32" fill="#231f20"></rect><rect width="2" height="2" x="34" y="32" fill="#231f20"></rect><rect width="2" height="2" x="14" y="36" fill="#231f20"></rect><rect width="2" height="2" x="18" y="36" fill="#231f20"></rect><rect width="2" height="2" x="22" y="36" fill="#231f20"></rect><rect width="2" height="2" x="26" y="36" fill="#231f20"></rect><rect width="2" height="2" x="30" y="36" fill="#231f20"></rect><rect width="2" height="2" x="34" y="36" fill="#231f20"></rect><rect width="2" height="2" x="14" y="40" fill="#231f20"></rect><rect width="2" height="2" x="18" y="40" fill="#231f20"></rect><rect width="2" height="2" x="22" y="40" fill="#231f20"></rect><rect width="2" height="2" x="26" y="40" fill="#231f20"></rect><rect width="2" height="2" x="30" y="40" fill="#231f20"></rect><rect width="2" height="2" x="34" y="40" fill="#231f20"></rect><rect width="10" height="2" x="42" y="28" fill="#231f20"></rect><rect width="10" height="2" x="42" y="32" fill="#231f20"></rect><rect width="10" height="2" x="42" y="36" fill="#231f20"></rect><rect width="10" height="2" x="42" y="40" fill="#231f20"></rect><rect width="10" height="2" x="42" y="44" fill="#231f20"></rect><rect width="10" height="2" x="42" y="48" fill="#231f20"></rect><rect width="10" height="2" x="42" y="52" fill="#231f20"></rect></g></svg>