<svg version="1.1" id="Layer_1" xmlns="http://www.w3.org/2000/svg" xmlns:xlink="http://www.w3.org/1999/xlink" x="0px" y="0px"
	 width="100%" viewBox="0 0 467 467" enable-background="new 0 0 467 467" xml:space="preserve">
<path fill="#F0F8FE" opacity="1.000000" stroke="none" 
	d="
M202.710541,1.244125 
	C223.687561,1.000000 244.375122,1.000000 265.531342,1.000000 
	C268.460785,2.967303 271.466125,1.912787 274.191406,2.387378 
	C318.947266,10.181367 358.258667,29.091221 392.024261,59.540695 
	C431.322937,94.979942 455.659668,138.800461 465.855896,190.625977 
	C466.626190,194.541214 466.679657,198.530319 467.755859,202.710541 
	C468.000000,223.687561 468.000000,244.375122 468.000000,265.531342 
	C466.120239,270.494385 466.506836,275.382019 465.601562,280.060303 
	C459.980225,309.110870 448.961914,335.958710 433.302643,360.973724 
	C431.990295,363.070129 430.796173,365.302490 428.218018,366.840179 
	C426.057220,367.509583 424.218292,367.467499 422.387024,367.468170 
	C396.054840,367.477997 369.722565,367.501526 343.390564,367.429138 
	C340.897461,367.422272 336.766846,368.364716 336.526947,365.522430 
	C336.302856,362.867126 340.505859,363.574860 342.785828,363.253754 
	C350.042542,362.231628 357.311340,361.254852 364.590393,360.419067 
	C371.526093,359.622681 376.735229,356.246979 380.948181,350.918091 
	C390.244751,339.159149 394.381348,325.401917 396.479126,310.866058 
	C397.409760,304.417145 397.876099,297.986603 396.266632,291.512360 
	C395.356323,287.850525 393.716827,286.685120 389.882202,287.488495 
	C368.144470,292.042664 346.174469,294.058502 323.937347,294.655884 
	C293.532440,295.472626 263.457397,293.027252 233.406189,288.888000 
	C227.192642,288.032196 224.051651,285.070343 221.810562,279.648773 
	C212.198120,256.394409 202.362717,233.232239 192.622253,210.030701 
	C187.010315,196.663223 181.443436,183.276398 175.714523,169.958725 
	C174.907730,168.083206 174.476334,165.153931 171.767731,165.466309 
	C168.503647,165.842758 165.075729,166.905548 162.945663,169.597229 
	C161.587173,171.313919 163.162964,173.442169 163.909744,175.238129 
	C171.139542,192.625397 178.498138,209.958786 185.783707,227.322723 
	C192.617935,243.610962 199.591690,259.840881 206.264191,276.196716 
	C207.001205,278.003326 208.467804,279.981140 207.055496,281.834534 
	C205.392532,284.016846 202.809357,283.345337 200.545593,282.849060 
	C159.376572,273.824158 119.311134,261.605988 81.731514,242.076752 
	C76.888466,239.559937 73.952293,236.152802 72.884819,230.816788 
	C71.478859,223.788773 69.792770,216.790894 69.605064,209.610580 
	C69.501968,205.666702 67.867569,204.342773 64.120605,204.437225 
	C58.125042,204.588333 52.121769,204.428207 46.122665,204.491364 
	C40.779446,204.547607 40.358009,205.090683 41.081318,210.333603 
	C43.075897,224.791260 47.503235,238.610275 52.527256,252.215897 
	C63.840363,282.852997 78.057533,311.957947 98.733742,337.548645 
	C102.203751,341.843445 106.071693,345.756378 110.206131,349.377350 
	C116.843521,355.190369 124.184631,359.445892 133.343262,360.119080 
	C139.811340,360.594543 146.203690,361.948486 152.661514,362.697357 
	C155.561035,363.033569 158.586777,363.194153 161.409760,365.230103 
	C159.017303,368.166046 156.014435,367.430145 153.370331,367.434937 
	C119.705208,367.496155 86.039925,367.460815 52.374744,367.497528 
	C49.779739,367.500336 46.962559,366.890167 44.591602,369.527100 
	C41.680073,370.655182 40.772034,368.525635 39.731895,366.988708 
	C20.278992,338.244598 7.581575,306.801697 2.114118,272.484711 
	C1.803145,270.532867 2.418755,268.485687 1.246216,266.300537 
	C1.000000,245.312439 1.000000,224.624878 1.000000,203.468658 
	C2.967297,200.539215 1.912784,197.533890 2.387380,194.808609 
	C10.181379,150.052780 29.091230,110.741402 59.540680,76.975830 
	C94.979866,37.677124 138.800385,13.340450 190.625793,3.144076 
	C194.541077,2.373762 198.530258,2.320245 202.710541,1.244125 
z"/>
<path fill="#F0F8FE" opacity="1.000000" stroke="none" 
	d="
M266.287445,467.756042 
	C245.312439,468.000000 224.624878,468.000000 203.468658,468.000000 
	C198.652496,466.187103 193.926559,466.509613 189.401886,465.630707 
	C149.117233,457.805511 113.486053,440.363098 82.040710,414.165161 
	C68.812698,403.144531 57.269611,390.507416 46.813786,376.866608 
	C45.487736,375.136627 43.424969,373.343689 45.594452,370.496765 
	C50.113026,369.791473 54.254177,370.476288 58.410023,370.471954 
	C117.548622,370.410278 176.687302,370.426758 235.825974,370.432343 
	C246.038147,370.433289 246.281296,370.599548 250.116119,380.070465 
	C251.304214,383.004730 252.608734,385.888550 253.808029,388.818237 
	C254.981613,391.685211 255.486649,394.548035 254.469315,397.573181 
	C253.308029,401.026398 253.682327,404.468689 254.625168,407.906555 
	C258.017517,420.275879 261.244293,432.690399 264.685089,445.046204 
	C267.645325,455.676361 275.352386,459.403168 285.359528,454.994507 
	C289.774261,453.049591 294.354309,451.426880 298.483398,448.874176 
	C305.465881,444.557465 307.886383,437.410675 303.649872,430.385773 
	C295.737518,417.265808 286.730835,404.846863 277.519318,392.597534 
	C276.301147,390.977631 274.617737,389.721863 272.635193,389.265961 
	C264.816650,387.468018 264.431122,380.428101 262.371368,374.676727 
	C261.641876,372.639801 263.164795,371.272430 265.250488,370.797302 
	C266.890930,370.423645 268.559357,370.438354 270.223877,370.437927 
	C319.200684,370.425598 368.177460,370.426117 417.154266,370.436737 
	C418.819427,370.437103 420.488037,370.424896 422.524109,370.904968 
	C425.918762,373.061249 423.601410,374.953705 422.479279,376.420074 
	C414.796082,386.460419 406.726105,396.209229 397.442108,404.809937 
	C383.628510,417.606842 368.784729,429.070007 352.382874,438.450073 
	C327.733826,452.546692 301.479431,462.077118 273.451050,466.728607 
	C271.159210,467.108978 268.771454,466.462433 266.287445,467.756042 
z"/>
<path fill="#000000" opacity="1.000000" stroke="none" 
	d="
M266.468658,468.000000 
	C265.394104,465.594055 267.171326,466.153961 268.445190,465.992828 
	C287.722961,463.554810 306.266418,458.272949 324.184387,450.920898 
	C342.423187,443.437164 359.615295,433.845245 375.242371,421.858765 
	C389.693420,410.774384 403.484039,398.826538 414.488525,384.056793 
	C417.401398,380.147247 420.677460,376.508301 423.862457,372.412323 
	C423.482635,369.225586 425.251862,367.736298 427.701324,366.311340 
	C444.956573,342.123260 455.977631,315.430084 462.787415,287.010559 
	C464.313660,280.640900 466.263306,274.139893 466.018829,267.389618 
	C465.984253,266.434326 466.629730,265.908752 467.639893,265.692566 
	C468.000000,331.928467 467.960266,397.857025 468.105377,463.785156 
	C468.113525,467.473511 467.243103,468.098541 463.723633,468.091827 
	C398.128387,467.966736 332.532806,468.000000 266.468658,468.000000 
z"/>
<path fill="#000000" opacity="1.000000" stroke="none" 
	d="
M202.531342,1.000000 
	C203.611115,3.408011 201.829041,2.835186 200.558945,3.008603 
	C180.858582,5.698481 161.874832,10.918053 143.577255,18.758036 
	C128.739609,25.115538 114.564415,32.581791 101.370865,41.929783 
	C92.997017,47.862888 85.063599,54.270611 77.298935,60.999771 
	C61.475132,74.713310 48.582996,90.813499 37.321270,108.266098 
	C22.208244,131.687164 11.595457,157.007202 5.866544,184.390762 
	C4.526304,190.796967 4.203540,197.451553 1.360080,203.307465 
	C1.000000,137.071518 1.039716,71.142960 0.894582,5.214799 
	C0.886462,1.526381 1.757026,0.901451 5.276397,0.908162 
	C70.871651,1.033255 136.467194,1.000000 202.531342,1.000000 
z"/>
<path fill="#000000" opacity="1.000000" stroke="none" 
	d="
M44.088490,370.450317 
	C47.366375,377.218781 52.172993,381.776459 56.323933,386.617462 
	C79.072548,413.148132 106.444290,433.644592 138.344299,448.045807 
	C156.291061,456.147858 174.981323,461.649994 194.339630,465.236176 
	C197.364120,465.796478 201.032852,464.512024 203.307465,467.639923 
	C137.071533,468.000000 71.142975,467.960266 5.214823,468.105408 
	C1.526486,468.113556 0.901444,467.243073 0.908156,463.723633 
	C1.033259,398.128387 1.000000,332.532806 1.000000,266.468658 
	C3.407584,265.380157 2.833430,267.163666 3.008635,268.431152 
	C5.746897,288.240540 11.028412,307.308594 18.896595,325.734985 
	C25.541002,341.295349 33.630051,355.981354 44.088490,370.450317 
z"/>
<path fill="#000000" opacity="1.000000" stroke="none" 
	d="
M468.000000,202.531342 
	C466.124786,202.030762 466.191162,202.021698 465.991486,200.558945 
	C463.302185,180.858475 458.081909,161.874832 450.241943,143.577225 
	C443.884460,128.739594 436.418182,114.564384 427.070160,101.370872 
	C421.137054,92.997055 414.729462,85.063560 408.000244,77.298943 
	C394.286652,61.475258 378.186554,48.583023 360.733978,37.321293 
	C337.312927,22.208267 311.992920,11.595530 284.609375,5.866570 
	C278.203125,4.526309 271.548553,4.203516 265.692566,1.360092 
	C331.928467,1.000000 397.857025,1.039715 463.785156,0.894586 
	C467.473511,0.886467 468.098541,1.756929 468.091827,5.276372 
	C467.966736,70.871628 468.000000,136.467194 468.000000,202.531342 
z"/>
<path fill="#1C2840" opacity="1.000000" stroke="none" 
	d="
M427.557648,366.078674 
	C426.758148,367.931671 425.494171,369.708221 424.084198,371.782166 
	C422.110840,372.004028 420.283569,371.862976 418.456207,371.862549 
	C368.468536,371.850555 318.480835,371.852936 268.493164,371.852936 
	C266.686615,371.852936 264.880066,371.852966 262.705475,371.852966 
	C263.902008,377.141571 266.451874,381.453278 268.141357,386.078979 
	C268.619568,387.388245 269.564362,387.562500 270.886902,387.548004 
	C275.114655,387.501617 277.870789,389.784119 280.201202,393.214600 
	C288.056702,404.778351 296.163635,416.170929 304.084961,427.690460 
	C310.226105,436.621185 307.608307,446.272369 297.862518,450.924133 
	C293.366333,453.070251 288.863037,455.212769 284.282318,457.167999 
	C275.608093,460.870575 266.600616,456.821381 264.018250,447.807526 
	C259.944977,433.589539 256.168030,419.286560 252.276886,405.016479 
	C251.742355,403.056183 251.133636,400.621582 252.220047,399.154480 
	C255.563721,394.639191 253.261871,390.816681 251.471924,386.808929 
	C249.311890,381.972626 248.361176,375.581970 244.671692,372.725525 
	C240.909576,369.812775 234.411102,371.890381 229.117661,371.885681 
	C170.632111,371.833618 112.146492,371.842072 53.660923,371.885498 
	C50.774597,371.887634 48.024040,371.660095 45.168037,370.670105 
	C44.881821,371.067627 44.954884,371.016266 44.967056,371.059235 
	C44.798355,370.804840 44.580681,370.537445 44.111404,370.153625 
	C43.896702,370.007172 43.985046,370.025635 43.965572,370.066711 
	C42.552052,365.365662 45.912716,365.992615 48.639317,365.991852 
	C84.137535,365.981842 119.635757,365.985229 155.133972,365.985199 
	C156.905930,365.985199 158.677872,365.985168 160.449829,365.985168 
	C160.469650,365.723694 160.489471,365.462219 160.509293,365.200745 
	C152.492279,364.102753 144.505615,362.561981 136.451187,362.009644 
	C124.097534,361.162476 114.259499,355.685699 105.734108,347.165833 
	C91.800728,333.241394 81.395012,316.812744 72.259583,299.552185 
	C58.212070,273.010681 46.707649,245.469452 40.585518,215.906403 
	C37.873486,202.810303 37.851486,202.814880 51.201984,202.814896 
	C56.035076,202.814896 60.880199,203.023178 65.697205,202.744827 
	C69.154747,202.545013 70.629456,203.252640 70.753464,207.189453 
	C71.026291,215.850754 72.845795,224.331146 74.747528,232.793121 
	C75.525818,236.256180 77.255928,238.201752 80.263710,239.800064 
	C114.725105,258.112305 151.477707,270.011047 189.299423,278.932434 
	C194.801102,280.230164 200.355133,281.306671 205.891205,282.455383 
	C206.144379,282.507935 206.459351,282.262665 207.281708,281.956482 
	C204.218781,274.642883 201.175964,267.353210 198.114502,260.071411 
	C185.877350,230.964737 173.695312,201.834518 161.311035,172.790573 
	C159.878220,169.430328 160.125916,168.159149 163.716675,166.752075 
	C174.101547,162.682648 174.012573,162.492828 178.248322,172.557602 
	C193.387863,208.531525 208.615128,244.468979 223.580215,280.515289 
	C225.401459,284.902100 227.701324,286.603027 232.487076,287.344635 
	C258.539948,291.381500 284.744324,293.552643 311.060333,293.703430 
	C338.233795,293.859131 365.282501,291.717285 391.870728,285.683380 
	C394.966492,284.980804 395.980713,285.727081 396.787598,288.452118 
	C400.030701,299.404938 398.605408,310.265503 396.001923,321.004333 
	C392.798950,334.215790 388.005615,346.560089 377.754578,356.367432 
	C371.448700,362.400421 363.666901,361.528687 356.326843,362.848145 
	C349.821960,364.017426 343.198425,364.526978 336.665497,366.002228 
	C366.808075,366.002228 396.950623,366.002228 427.557648,366.078674 
z"/>
<path fill="#F0F8FE" opacity="1.000000" stroke="none" 
	d="
M43.973122,370.276611 
	C44.504025,369.578278 45.015179,369.678345 45.206585,370.694397 
	C44.669334,370.916809 44.359436,370.731445 43.973122,370.276611 
z"/>
<path fill="#A8D5FA" opacity="1.000000" stroke="none" 
	d="
M271.009216,345.466492 
	C293.114807,344.927307 314.724030,344.570923 336.294586,343.050568 
	C350.227234,342.068542 364.143829,340.961365 378.012451,339.287354 
	C379.443909,339.114532 380.898529,339.133331 383.193359,339.021912 
	C377.953156,347.192810 373.575623,354.189392 362.972626,355.565674 
	C328.970032,359.979279 294.885986,362.901642 260.619598,363.903137 
	C257.448090,363.995789 255.846985,363.107452 254.834244,360.061462 
	C253.528336,356.133759 251.747559,352.355530 250.035309,348.574493 
	C249.012451,346.315826 249.191376,345.346802 252.035141,345.419525 
	C258.189209,345.576782 264.350098,345.467316 271.009216,345.466492 
z"/>
<path fill="#A9D6FB" opacity="1.000000" stroke="none" 
	d="
M196.603180,344.205200 
	C208.716003,344.543732 220.359238,344.988129 232.005371,345.084564 
	C235.124344,345.110352 236.828857,345.924927 237.909332,348.940521 
	C239.687500,353.903473 241.881561,358.717377 244.049179,363.953796 
	C230.604126,364.438599 217.682678,363.541504 204.793472,362.724731 
	C181.379791,361.240906 158.050934,358.798676 134.845428,355.223633 
	C131.804916,354.755188 129.514084,353.739380 127.643379,351.437744 
	C124.735077,347.859528 121.795082,344.307068 117.965561,339.644226 
	C144.899185,341.602203 170.477921,343.689789 196.603180,344.205200 
z"/>
<path fill="#EBF3F9" opacity="1.000000" stroke="none" 
	d="
M218.759155,304.006226 
	C220.229340,307.403320 221.497635,310.459290 223.054077,314.209473 
	C206.207870,312.069824 189.884247,310.245087 173.639954,307.876373 
	C147.810410,304.109955 122.162743,299.337738 96.826454,292.963837 
	C93.449814,292.114349 91.308784,290.650696 90.185791,287.266754 
	C88.536293,282.296295 86.514046,277.449554 84.282730,271.582886 
	C97.481522,276.524109 109.855774,280.603668 122.434998,284.037720 
	C153.269135,292.455231 184.592804,298.434448 216.207062,302.986542 
	C217.006454,303.101624 217.774582,303.434021 218.759155,304.006226 
z"/>
<path fill="#A8D5FA" opacity="1.000000" stroke="none" 
	d="
M65.425713,219.523819 
	C74.885307,265.865295 90.879463,309.048615 118.486969,348.048035 
	C115.192558,347.758423 113.733810,345.396820 111.989861,343.747955 
	C99.887383,332.305145 90.799850,318.573853 82.611267,304.228638 
	C67.046112,276.960632 54.569588,248.419891 47.574726,217.670425 
	C45.602814,209.001892 45.585365,209.005859 54.278656,209.005859 
	C64.074219,209.005859 64.074219,209.005859 65.425713,219.523819 
z"/>
<path fill="#A8D5FA" opacity="1.000000" stroke="none" 
	d="
M120.118301,302.911255 
	C153.799652,309.859070 187.335480,314.963837 221.160583,318.051880 
	C227.417480,318.623108 226.283875,323.946503 228.955154,327.794739 
	C219.850143,328.399750 211.493210,327.343201 203.188614,326.720123 
	C173.647873,324.503754 144.204346,321.380493 114.852654,317.230042 
	C106.189667,316.005066 100.264168,313.240051 97.887657,304.482666 
	C97.249313,302.130402 95.868713,299.979553 94.474052,296.970795 
	C103.363976,299.043640 111.531479,300.948029 120.118301,302.911255 
z"/>
<path fill="#A8D5FA" opacity="1.000000" stroke="none" 
	d="
M76.808609,246.576401 
	C92.871246,253.559708 108.762962,261.031067 125.322777,267.004425 
	C152.243896,276.715240 179.755356,284.296448 207.870422,289.529144 
	C213.232376,290.527039 214.959610,293.270355 215.926605,298.535889 
	C204.451462,296.638672 193.310532,294.999298 182.250137,292.929565 
	C150.723541,287.030090 119.504715,279.965790 89.341339,268.728821 
	C83.917984,266.708435 80.837685,263.784119 79.761253,258.182892 
	C79.043793,254.449554 77.673927,250.841568 76.808609,246.576401 
z"/>
<path fill="#AAD7FC" opacity="1.000000" stroke="none" 
	d="
M291.231445,420.776398 
	C293.984467,424.764038 296.628754,428.394989 299.042603,432.173187 
	C302.275787,437.233795 301.045837,441.899170 295.690765,444.611725 
	C291.104431,446.934875 286.418945,449.083710 281.679932,451.078217 
	C276.559021,453.233429 271.725281,451.143372 270.239319,445.862976 
	C266.284058,431.807709 262.619171,417.670990 258.755310,403.589569 
	C258.257141,401.773987 258.220703,400.084991 259.864990,399.187958 
	C263.208344,397.363831 266.653564,395.675171 270.195740,394.284576 
	C272.614288,393.335083 273.697083,395.520416 274.824493,397.141266 
	C280.232452,404.916046 285.623199,412.702789 291.231445,420.776398 
z"/>
<path fill="#E7EFF6" opacity="1.000000" stroke="none" 
	d="
M375.969421,312.955383 
	C340.757050,318.962036 305.723969,319.829468 270.574066,318.060638 
	C260.110413,317.534088 249.665848,316.634918 239.204086,316.060272 
	C237.077042,315.943420 235.843872,315.265106 235.129425,313.263397 
	C234.189362,310.629578 233.061035,308.062927 231.802551,304.944214 
	C239.689926,305.718353 247.081207,306.443573 254.472443,307.169220 
	C285.661530,310.231110 316.890930,311.180359 348.186920,309.059082 
	C360.979126,308.192047 373.675201,306.617828 386.318695,304.496765 
	C388.165802,304.186890 391.006439,301.932892 392.053345,305.321136 
	C393.277435,309.283051 390.280060,310.237549 387.160217,310.800171 
	C383.563629,311.448730 379.985352,312.198914 375.969421,312.955383 
z"/>
<path fill="#E8F0F7" opacity="1.000000" stroke="none" 
	d="
M150.361206,337.583984 
	C139.779449,336.717316 129.673676,335.700958 119.542404,335.186676 
	C115.937698,335.003662 113.698105,333.824524 112.068611,330.685516 
	C110.317795,327.312683 108.224922,324.117432 106.056175,320.465607 
	C120.207420,322.356384 133.777008,324.380127 147.399368,325.944122 
	C172.851273,328.866302 198.354782,331.368164 223.971039,332.184326 
	C229.968948,332.375397 233.230423,334.431427 233.864380,340.923096 
	C206.121902,340.436523 178.465347,339.307983 150.361206,337.583984 
z"/>
<path fill="#A2CEF2" opacity="1.000000" stroke="none" 
	d="
M336.393188,328.235840 
	C310.340790,329.893219 284.734436,329.883270 259.120026,329.250977 
	C255.461166,329.160675 251.740952,328.639282 248.156128,329.118256 
	C242.035568,329.936066 239.772324,326.860992 239.053894,320.912109 
	C289.751007,324.928833 340.253906,325.757477 390.303131,315.077423 
	C390.035370,323.140503 389.984863,323.136017 382.549530,324.102905 
	C367.372986,326.076416 352.159241,327.607513 336.393188,328.235840 
z"/>
<path fill="#A3CFF4" opacity="1.000000" stroke="none" 
	d="
M342.918335,299.034180 
	C358.175262,297.947357 372.878571,296.216125 387.351532,292.970459 
	C391.240967,292.098236 392.440552,293.238586 392.197571,296.995056 
	C392.005035,299.971497 389.554504,299.197174 388.097076,299.478271 
	C371.898895,302.602692 355.529083,304.213593 339.058350,305.152039 
	C304.357605,307.129211 269.876648,304.441071 235.429352,300.764862 
	C229.296783,300.110413 229.306717,300.017273 227.050766,293.130554 
	C265.454834,299.073425 303.818726,301.871521 342.918335,299.034180 
z"/>
<path fill="#E6EEF5" opacity="1.000000" stroke="none" 
	d="
M295.397552,340.203735 
	C279.800232,341.223022 264.649994,340.931122 249.505386,341.026245 
	C244.376801,341.058502 246.198044,336.120026 243.926987,333.889618 
	C268.044220,334.253632 291.892151,334.389893 315.720123,333.685791 
	C339.478271,332.983734 363.193695,331.314575 386.800385,328.018982 
	C386.952118,332.735443 384.619751,334.036469 380.493622,334.460297 
	C352.347504,337.351166 324.198700,340.084900 295.397552,340.203735 
z"/>
<path fill="#D9E1E9" opacity="1.000000" stroke="none" 
	d="
M254.331299,376.704468 
	C226.273651,310.038483 198.395416,243.711029 170.518005,177.383224 
	C170.260361,176.770187 169.943405,176.170883 169.776932,175.533112 
	C169.439255,174.239288 167.592377,172.519272 169.658661,171.718323 
	C171.722488,170.918304 171.595963,173.470535 172.081390,174.620026 
	C191.144791,219.762497 210.143234,264.932404 229.156876,310.095886 
	C239.926086,335.676147 250.707108,361.251434 261.482178,386.829254 
	C261.998383,388.054657 262.524719,389.276184 263.015381,390.511841 
	C263.343506,391.338135 263.405090,392.287140 262.552795,392.718872 
	C261.198181,393.405029 260.850189,392.134369 260.486542,391.282898 
	C258.464874,386.548950 256.497040,381.791992 254.331299,376.704468 
z"/>
<path fill="#A8D5FA" opacity="1.000000" stroke="none" 
	d="
M76.766922,246.289978 
	C76.544998,246.160538 76.277740,245.915497 76.293793,245.690704 
	C76.325882,245.241409 76.601280,245.198730 76.960876,245.761169 
	C77.021164,245.975311 76.849739,246.183548 76.766922,246.289978 
z"/>
</svg>