<svg xmlns="http://www.w3.org/2000/svg" xmlns:xlink="http://www.w3.org/1999/xlink" width="49" height="49" viewBox="0 0 49 49">
  <defs>
    <clipPath id="clip-path">
      <rect id="Rectangle_56313" data-name="Rectangle 56313" width="2.214" height="3.376" fill="#4759a4"/>
    </clipPath>
  </defs>
  <g id="Group_183222" data-name="Group 183222" transform="translate(-765 4221)">
    <circle id="Ellipse_26761" data-name="Ellipse 26761" cx="24.5" cy="24.5" r="24.5" transform="translate(765 -4221)" fill="#f0f4fd"/>
    <g id="Group_183221" data-name="Group 183221" transform="translate(836.726 -3702)">
      <g id="Group_183216" data-name="Group 183216" transform="translate(-66 -510)">
        <rect id="Rectangle_43540" data-name="Rectangle 43540" width="34" height="34" transform="translate(0.274)" fill="none"/>
        <path id="Path_130583" data-name="Path 130583" d="M17.23,15.623s1.021-.758,1.459-1H30.364a12.948,12.948,0,0,1,1.46,1s2.189,2.315,2.687,3.058c1.038,1.551-1.477,7.752-1.477,7.752l-.327.108a19.06,19.06,0,0,1-2.343.587H18.69a13.856,13.856,0,0,1-2.343-.587c-1.126-.407-.727-7.606-.727-7.606l.731-2.094Z" transform="translate(-1.929 0.442)" fill="#8a8dc4"/>
        <path id="Path_130584" data-name="Path 130584" d="M19.134,26.425H30.81V28.6a32.786,32.786,0,0,1-11.676,0Z" transform="translate(-2.373 -1.022)" fill="#4759a4"/>
        <path id="Path_130585" data-name="Path 130585" d="M18.222,22.049a.559.559,0,1,0,.56.56.56.56,0,0,0-.56-.56" transform="translate(-2.191 -0.479)" fill="#4759a4"/>
        <path id="Path_130586" data-name="Path 130586" d="M13.182,23.425a9.406,9.406,0,0,0,3.459,1.447l.3-4.366V15.773c-2.668,2.14-3.754,3.965-3.754,7.652" transform="translate(-1.635 0.299)" fill="#475aa4"/>
        <path id="Path_130587" data-name="Path 130587" d="M19.846,4.54C20.707.964,22,0,25.061,0s4.353.964,5.214,4.54a36.822,36.822,0,0,0-10.428,0" transform="translate(-2.462 2.255)" fill="#e3898b"/>
        <path id="Path_130589" data-name="Path 130589" d="M33.217,22.049a.559.559,0,1,0,.56.56.56.56,0,0,0-.56-.56" transform="translate(-4.051 -0.479)" fill="#4759a4"/>
        <path id="Path_130590" data-name="Path 130590" d="M30.08,24.508H19.865a.73.73,0,0,0-.731.73v.511H30.81v-.511a.73.73,0,0,0-.73-.73" transform="translate(-2.373 -0.784)" fill="#4759a4"/>
        <path id="Path_130591" data-name="Path 130591" d="M34.129,15.774v4.733l.884,6.185a9.677,9.677,0,0,0,3.494-1.807,11.651,11.651,0,0,0-4.378-9.111" transform="translate(-4.233 0.299)" fill="#475aa4"/>
        <path id="Path_130592" data-name="Path 130592" d="M28.916,12.532a11.608,11.608,0,0,1,1.893.877v5.732H19.134V13.409a11.728,11.728,0,0,1,1.893-.878A8.251,8.251,0,0,1,19.48,7.48a9.984,9.984,0,0,1,.272-2.327l-.013-.017a37.086,37.086,0,0,1,10.465,0l-.014.017a9.939,9.939,0,0,1,.273,2.327,8.254,8.254,0,0,1-1.548,5.053" transform="translate(-2.373 1.664)" fill="#4759a4"/>
        <path id="Path_130593" data-name="Path 130593" d="M28.8,11.811a7.936,7.936,0,0,0,1.086-4.176,9.275,9.275,0,0,0-.143-1.62c-.124.147-.237.279-.3.351a.92.92,0,0,1-.792.321c-2.647-.263-2.857-.3-3.531-.3s-.954.045-3.532.3a.918.918,0,0,1-.791-.321l-.3-.351a9.275,9.275,0,0,0-.143,1.62,7.944,7.944,0,0,0,1.086,4.176,4.116,4.116,0,0,0,3.676,1.96,4.115,4.115,0,0,0,3.676-1.96" transform="translate(-2.526 1.509)" fill="#ffc18d"/>
        <g id="Group_183212" data-name="Group 183212" transform="translate(21.492 2.861)">
          <g id="Group_183211" data-name="Group 183211" clip-path="url(#clip-path)">
            <path id="Path_144240" data-name="Path 144240" d="M2.195.007,2.186,0H.917l0,0C.879.051.54.787.436,1.012.26,1.395,0,1.966,0,1.977a0,0,0,0,0,0,0c.031.029.062.03.194.036.091,0,.227.01.445.029C.6,2.133.038,3.26,0,3.3v0c0,.037,0,.061.019.067H.027c.056,0,.216-.174.743-.743.237-.257.533-.576.925-1,.026-.028.035-.049.028-.066-.017-.038-.126-.036-.276-.032-.085,0-.182,0-.276,0l0-.005c.01-.016.01-.016.259-.369L1.7.789C1.83.6,1.93.464,2,.362c.23-.321.23-.321.191-.354" transform="translate(0 0.001)" fill="#4759a4"/>
          </g>
        </g>
      </g>
      <g id="Group_183215" data-name="Group 183215" transform="translate(-66 -502.807)">
        <path id="Path_130594" data-name="Path 130594" d="M8.4,25.052.8,10.668,2.638,9.7l9.547,11.4.809,1.529Z" transform="translate(-0.1 -6.14)" fill="#e3898b"/>
        <path id="Path_130595" data-name="Path 130595" d="M7.16,25.9l3.558,6.733,1.223-.646-.322-.612L15.9,29.106l.324.612,1.225-.647-2.264-4.284-3.743-1.154Zm2.194,1.19L11.8,25.792l2.806.865.647,1.225L10.97,30.147Z" transform="translate(-0.888 -7.868)" fill="#cadceb"/>
        <rect id="Rectangle_43514" data-name="Rectangle 43514" width="4.846" height="0.692" transform="translate(9.759 21.666) rotate(-27.857)" fill="#4759a4"/>
        <path id="Path_130596" data-name="Path 130596" d="M6.232,24.345l.344-1.081L5.427,22.9,5.8,21.74l-1.146-.366.371-1.162-1.145-.367.37-1.162L3.1,18.317l.37-1.162-1.145-.366L2.7,15.627l-1.146-.365.37-1.162L.778,13.732l.37-1.161L0,12.2l0,.011L.343,11.07l.442-.326L7.552,23.623" transform="translate(0 -6.27)" fill="#e3898b"/>
        <path id="Path_130597" data-name="Path 130597" d="M6.348,7.4,7.741,9.641l1.067,1.718-.824.512,2.58,4.152s.094,0,.26.019c.214.019.552.056.969.121a15.094,15.094,0,0,1,2.631.649,9.723,9.723,0,0,1,2.122,1.022,6.687,6.687,0,0,1,.815.63l3.6,5.8a1.091,1.091,0,0,0,1.8-1.12L13.616,8.411l.254-.158-.479-.772L10.547,9.248l.463.744-.594.369L9.349,8.641,13.117,6.3l-.292-.47C10.163,5.363,7.39,5.688,6.348,7.4m14.89,14.635.522.841a.339.339,0,1,1-.576.357l-.523-.841a.339.339,0,1,1,.576-.357M12.623,12.4a.51.51,0,0,1,.062-.031.46.46,0,0,1,.287-.025.454.454,0,0,1,.283.2l.356.573a.458.458,0,0,1-.149.632l-.676.421-.808.5a.458.458,0,0,1-.386.043.45.45,0,0,1-.2-.129.421.421,0,0,1-.048-.062l-.356-.573a.459.459,0,0,1,.147-.632l.808-.5Z" transform="translate(-0.788 -5.636)" fill="#e3898b"/>
        <path id="Path_130598" data-name="Path 130598" d="M15.419,20.18a.865.865,0,0,0,.409-1.135l-.428-.689a10.828,10.828,0,0,0-2.768-.69l1.588,2.378a.865.865,0,0,0,1.2.137" transform="translate(-1.567 -7.128)" fill="#cadceb"/>
      </g>
    </g>
  </g>
</svg>
